0
SECTION
2
HEADER
9
$INSUNITS
70
4
0
ENDSEC
0
SECTION
2
TABLES
0
TABLE
2
LTYPE
0
LTYPE
72
65
70
64
2
CONTINUOUS
3
______
73
0
40
0
0
ENDTAB
0
TABLE
2
LAYER
0
ENDTAB
0
ENDSEC
0
SECTION
2
ENTITIES
0
LINE
8
0
10
-9
20
9
11
9
21
9
0
LINE
8
0
10
9
20
9
11
9
21
-9
0
LINE
8
0
10
9
20
-9
11
-9
21
-9
0
LINE
8
0
10
-9
20
-9
11
-9
21
9
0
LINE
8
0
10
-9
20
26
11
9
21
26
0
LINE
8
0
10
9
20
26
11
9
21
8
0
LINE
8
0
10
9
20
8
11
-9
21
8
0
LINE
8
0
10
-9
20
8
11
-9
21
26
0
LINE
8
0
10
9
20
7
11
27
21
7
0
LINE
8
0
10
27
20
7
11
27
21
-11
0
LINE
8
0
10
27
20
-11
11
9
21
-11
0
LINE
8
0
10
9
20
-11
11
9
21
7
0
LINE
8
0
10
9
20
24
11
27
21
24
0
LINE
8
0
10
27
20
24
11
27
21
6
0
LINE
8
0
10
27
20
6
11
9
21
6
0
LINE
8
0
10
9
20
6
11
9
21
24
0
LINE
8
0
10
9
20
41
11
27
21
41
0
LINE
8
0
10
27
20
41
11
27
21
23
0
LINE
8
0
10
27
20
23
11
9
21
23
0
LINE
8
0
10
9
20
23
11
9
21
41
0
LINE
8
0
10
32.3497318
20
23.6058847
11
50.3058847
21
22.3502682
0
LINE
8
0
10
50.3058847
20
22.3502682
11
49.0502682
21
4.3941153
0
LINE
8
0
10
49.0502682
20
4.3941153
11
31.0941153
21
5.6497318
0
LINE
8
0
10
31.0941153
20
5.6497318
11
32.3497318
21
23.6058847
0
LINE
8
0
10
33.5355919
20
40.5644736
11
51.4917448
21
39.3088571
0
LINE
8
0
10
51.4917448
20
39.3088571
11
50.2361283
21
21.3527042
0
LINE
8
0
10
50.2361283
20
21.3527042
11
32.2799754
21
22.6083207
0
LINE
8
0
10
32.2799754
20
22.6083207
11
33.5355919
21
40.5644736
0
LINE
8
0
10
34.721452
20
57.5230625
11
52.6776049
21
56.267446
0
LINE
8
0
10
52.6776049
20
56.267446
11
51.4219884
21
38.3112931
0
LINE
8
0
10
51.4219884
20
38.3112931
11
33.4658355
21
39.5669096
0
LINE
8
0
10
33.4658355
20
39.5669096
11
34.721452
21
57.5230625
0
LINE
8
0
10
57.0628065
20
34.7089831
11
74.8236642
21
31.784614
0
LINE
8
0
10
74.8236642
20
31.784614
11
71.8992951
21
14.0237563
0
LINE
8
0
10
71.8992951
20
14.0237563
11
54.1384374
21
16.9481254
0
LINE
8
0
10
54.1384374
20
16.9481254
11
57.0628065
21
34.7089831
0
LINE
8
0
10
59.8247107
20
51.4831265
11
77.5855684
21
48.5587574
0
LINE
8
0
10
77.5855684
20
48.5587574
11
74.6611993
21
30.7978997
0
LINE
8
0
10
74.6611993
20
30.7978997
11
56.9003416
21
33.7222688
0
LINE
8
0
10
56.9003416
20
33.7222688
11
59.8247107
21
51.4831265
0
LINE
8
0
10
62.5866149
20
68.2572699
11
80.3474726
21
65.3329008
0
LINE
8
0
10
80.3474726
20
65.3329008
11
77.4231035
21
47.5720431
0
LINE
8
0
10
77.4231035
20
47.5720431
11
59.6622458
21
50.4964122
0
LINE
8
0
10
59.6622458
20
50.4964122
11
62.5866149
21
68.2572699
0
LINE
8
0
10
79.5310473
20
23.7697555
11
96.9095547
21
19.0806743
0
LINE
8
0
10
96.9095547
20
19.0806743
11
92.2204735
21
1.7021669
0
LINE
8
0
10
92.2204735
20
1.7021669
11
74.8419661
21
6.3912481
0
LINE
8
0
10
74.8419661
20
6.3912481
11
79.5310473
21
23.7697555
0
LINE
8
0
10
83.9596239
20
40.1827902
11
101.3381313
21
35.493709
0
LINE
8
0
10
101.3381313
20
35.493709
11
96.6490501
21
18.1152016
0
LINE
8
0
10
96.6490501
20
18.1152016
11
79.2705427
21
22.8042828
0
LINE
8
0
10
79.2705427
20
22.8042828
11
83.9596239
21
40.1827902
0
LINE
8
0
10
88.3882005
20
56.5958249
11
105.7667079
21
51.9067437
0
LINE
8
0
10
105.7667079
20
51.9067437
11
101.0776267
21
34.5282363
0
LINE
8
0
10
101.0776267
20
34.5282363
11
83.6991193
21
39.2173175
0
LINE
8
0
10
83.6991193
20
39.2173175
11
88.3882005
21
56.5958249
0
LINE
8
0
10
98.0178061
20
17.9681823
11
115.0207093
21
12.0604515
0
LINE
8
0
10
115.0207093
20
12.0604515
11
109.1129785
21
-4.9424517
0
LINE
8
0
10
109.1129785
20
-4.9424517
11
92.1100753
21
0.9652791
0
LINE
8
0
10
92.1100753
20
0.9652791
11
98.0178061
21
17.9681823
0
LINE
8
0
10
103.5973296
20
34.0264797
11
120.6002328
21
28.1187489
0
LINE
8
0
10
120.6002328
20
28.1187489
11
114.692502
21
11.1158457
0
LINE
8
0
10
114.692502
20
11.1158457
11
97.6895988
21
17.0235765
0
LINE
8
0
10
97.6895988
20
17.0235765
11
103.5973296
21
34.0264797
0
LINE
8
0
10
109.1768531
20
50.0847771
11
126.1797563
21
44.1770463
0
LINE
8
0
10
126.1797563
20
44.1770463
11
120.2720255
21
27.1741431
0
LINE
8
0
10
120.2720255
20
27.1741431
11
103.2691223
21
33.0818739
0
LINE
8
0
10
103.2691223
20
33.0818739
11
109.1768531
21
50.0847771
0
LINE
8
0
10
86.3926518
20
-2.5940648
11
103.5443749
21
-8.0546871
0
LINE
8
0
10
103.5443749
20
-8.0546871
11
98.0837526
21
-25.2064102
0
LINE
8
0
10
98.0837526
20
-25.2064102
11
80.9320295
21
-19.7457879
0
LINE
8
0
10
80.9320295
20
-19.7457879
11
86.3926518
21
-2.5940648
0
LINE
8
0
10
106.9858611
20
-9.5240594
11
122.9083186
21
-17.9190189
0
LINE
8
0
10
122.9083186
20
-17.9190189
11
114.5133591
21
-33.8414764
0
LINE
8
0
10
114.5133591
20
-33.8414764
11
98.5909016
21
-25.4465169
0
LINE
8
0
10
98.5909016
20
-25.4465169
11
106.9858611
21
-9.5240594
0
LINE
8
0
10
126.0373616
20
-19.9713276
11
140.2331524
21
-31.0383744
0
LINE
8
0
10
140.2331524
20
-31.0383744
11
129.1661056
21
-45.2341652
0
LINE
8
0
10
129.1661056
20
-45.2341652
11
114.9703148
21
-34.1671184
0
LINE
8
0
10
114.9703148
20
-34.1671184
11
126.0373616
21
-19.9713276
0
ENDSEC
0
EOF